# xmcd
#
# Track frame offsets:
#   150
#   24008
#   38935
#   55482
#   69887
#   85523
#   102181
#   124168
#   140305
#   155792
#   172131
#   188429
#   199933
#   214166
#   230164
#   247257
#   260532
#   277798
#   292121
#   311808
#   323159
#   334003
#
# Disc length: 4639 seconds
#
# Revision: 0
# Processed by: cddbd v1.5.1PL2 Copyright (c) Steve Scherf et al.
# Submitted via: uFREEDB ActiveX Control 1.5
#
DISCID=48121d16
DTITLE=Forrozao Chacal - Forrozao Chacal
DYEAR=2006
DGENRE=Alternative
TTITLE0=Mulher Casada 
TTITLE1=Perdidos
TTITLE2=Sem Querer
TTITLE3=Obcessao
TTITLE4=Misterios 
TTITLE5=Voce nao vale nada 
TTITLE6=Quero ficar
TTITLE7=Depois da meia noite
TTITLE8=Lapada na rachada
TTITLE9=Nossa historia
TTITLE10=Brigas de amor
TTITLE11=Naquela Festa 
TTITLE12=Nos separar 
TTITLE13=Promessas de Amor
TTITLE14=Um abraco
TTITLE15=Adao e Eva
TTITLE16=Fulera
TTITLE17=Bebo pra cachorro
TTITLE18=Toc toc
TTITLE19=O jogo virou
TTITLE20=jamais vou te deixar
TTITLE21=Suwing Moral
EXTD=
EXTT0=
EXTT1=
EXTT2=
EXTT3=
EXTT4=
EXTT5=
EXTT6=
EXTT7=
EXTT8=
EXTT9=
EXTT10=
EXTT11=
EXTT12=
EXTT13=
EXTT14=
EXTT15=
EXTT16=
EXTT17=
EXTT18=
EXTT19=
EXTT20=
EXTT21=
PLAYORDER=
